<?xml version="1.0" standalone="no"?>
<!DOCTYPE svg PUBLIC "-//W3C//DTD SVG 20010904//EN"
 "http://www.w3.org/TR/2001/REC-SVG-20010904/DTD/svg10.dtd">
<svg version="1.0" xmlns="http://www.w3.org/2000/svg"
 width="800.000000pt" height="800.000000pt" viewBox="0 0 800.000000 800.000000"
 preserveAspectRatio="xMidYMid meet">

<g transform="translate(0.000000,800.000000) scale(0.100000,-0.100000)"
fill="#000000" stroke="none">
<path d="M2250 6995 l-745 -745 745 -745 745 -745 3 621 2 620 628 -4 c531 -3
643 -6 732 -21 557 -91 1020 -325 1406 -710 212 -213 361 -423 490 -691 251
-522 310 -1132 165 -1701 -55 -216 -184 -516 -297 -694 -157 -247 -398 -511
-614 -672 -586 -437 -1295 -599 -2005 -457 -275 55 -605 185 -825 325 -247
157 -511 398 -672 614 -308 413 -477 877 -504 1383 l-7 127 -250 0 -250 0 7
-137 c21 -421 120 -807 301 -1178 388 -793 1098 -1371 1950 -1590 1511 -387
3065 448 3578 1922 328 942 163 1990 -437 2787 -441 585 -1084 991 -1797 1135
-255 52 -287 54 -961 58 l-638 5 -2 619 -3 619 -745 -745z"/>
<path d="M4723 4431 c-108 -27 -196 -75 -275 -149 -148 -140 -221 -333 -249
-662 -17 -207 3 -462 52 -640 48 -176 163 -340 292 -418 102 -62 186 -84 337
-89 157 -6 221 6 339 63 155 76 258 212 336 447 53 157 65 250 65 487 0 237
-12 330 -65 487 -88 263 -201 392 -408 465 -87 31 -319 36 -424 9z m331 -316
c100 -47 147 -123 181 -294 14 -67 16 -130 12 -378 -3 -266 -6 -305 -25 -368
-46 -153 -92 -225 -173 -270 -48 -27 -63 -30 -139 -30 -76 0 -91 3 -139 30
-87 48 -132 126 -165 288 -23 109 -23 625 0 734 40 193 106 278 248 314 51 13
143 1 200 -26z"/>
<path d="M2863 4281 c-144 -81 -272 -154 -284 -163 l-22 -14 68 -131 69 -131
50 28 c112 62 408 220 412 220 2 0 3 -291 2 -647 l-3 -648 -248 0 -247 0 0
-147 0 -148 639 0 640 0 3 151 c2 83 1 153 -1 155 -2 2 -103 4 -223 4 l-218 0
0 810 0 810 -187 -1 -188 -1 -262 -147z"/>
</g>
</svg>
