<?xml version="1.0"?><svg data-name="Layer 1" id="Layer_1" viewBox="0 0 100 100" xmlns="http://www.w3.org/2000/svg"><title/><path d="M50,95A45,45,0,1,0,5,50,45.00025,45.00025,0,0,0,50,95ZM19.59424,19.59448A42.99994,42.99994,0,1,1,6.99988,50,42.8608,42.8608,0,0,1,19.59424,19.59448Z"/><path d="M25.14661,65a2.13394,2.13394,0,0,0,1.12658-.32355L45,53.05658v9.79449a2.14138,2.14138,0,0,0,3.27319,1.82538L67,53.05658V62a3.0003,3.0003,0,0,0,3,3h4a3.00027,3.00027,0,0,0,2.99988-3V38A3.00024,3.00024,0,0,0,74,35H70a3.00026,3.00026,0,0,0-3,3v8.94336L48.27332,35.32361l-.00061-.00037A2.1437,2.1437,0,0,0,45,37.14893v9.79443L26.27332,35.32361l-.00061-.00037A2.1437,2.1437,0,0,0,23,37.14893V62.85107A2.14682,2.14682,0,0,0,25.14661,65Zm-.14673-27.85107.0415-.1045.10523-.04449.07263.02344L45,49.29712v1.4057L25.21875,62.97693l-.07214.02313-.10523-.04449-.0415-.1045Zm22.21936-.12555L67,49.29712v1.4057L47.21875,62.97693l-.07214.02313-.10523-.04449-.0415-.1045V37.14893l.0415-.1045.10523-.04449ZM75,38V62a1.00213,1.00213,0,0,1-1,1H70a1.00215,1.00215,0,0,1-1.00012-1V38A1.00211,1.00211,0,0,1,70,37h4A1.00209,1.00209,0,0,1,75,38Z"/></svg>