<?xml version="1.0"?><svg data-name="Layer 1" id="Layer_1" viewBox="0 0 100 100" xmlns="http://www.w3.org/2000/svg"><title/><path d="M50,5A45,45,0,1,0,94.99988,50,45.00023,45.00023,0,0,0,50,5ZM80.40564,80.40552A42.99994,42.99994,0,1,1,93,50,42.86133,42.86133,0,0,1,80.40564,80.40552Z"/><path d="M74.853,34.99994a2.13313,2.13313,0,0,0-1.12659.32373L54.99994,46.94336V37.14893a2.14133,2.14133,0,0,0-3.27332-1.82532L32.99994,46.94336V38A3.00033,3.00033,0,0,0,30,35H26a3.00034,3.00034,0,0,0-3,3V62a3.00038,3.00038,0,0,0,3,3h4a3.00036,3.00036,0,0,0,2.99994-3V53.05658L51.72662,64.67633A2.13192,2.13192,0,0,0,52.85315,65a2.147,2.147,0,0,0,2.14679-2.14893V53.05658L73.72656,64.67633A2.13158,2.13158,0,0,0,74.85315,65a2.147,2.147,0,0,0,2.14673-2.14893V37.14893a2.14712,2.14712,0,0,0-2.14685-2.149ZM75,62.85107l-.0415.10437-.10535.04462-.07166-.02289L54.99994,50.70288V49.29706L74.78113,37.023l.0719-.02307.10534.04468L75,37.14893ZM24.99994,62V38A1.002,1.002,0,0,1,26,37h4a1.002,1.002,0,0,1,1,1V62a1.002,1.002,0,0,1-1,1H26A1.00206,1.00206,0,0,1,24.99994,62Zm8-12.70294L52.78113,37.023l.072-.02307.10529.04462L53,37.14893V62.85107l-.0415.10437-.10535.04462-.07178-.023L32.99994,50.70288Z"/></svg>