<?xml version="1.0" standalone="no"?>
<!DOCTYPE svg PUBLIC "-//W3C//DTD SVG 20010904//EN"
 "http://www.w3.org/TR/2001/REC-SVG-20010904/DTD/svg10.dtd">
<svg version="1.0" xmlns="http://www.w3.org/2000/svg"
 width="800.000000pt" height="800.000000pt" viewBox="0 0 800.000000 800.000000"
 preserveAspectRatio="xMidYMid meet">

<g transform="translate(0.000000,800.000000) scale(0.100000,-0.100000)"
fill="#000000" stroke="none">
<path d="M5000 7128 l0 -626 -642 -5 c-709 -4 -750 -7 -1048 -78 -1105 -261
-1968 -1124 -2229 -2229 -60 -254 -75 -387 -75 -690 0 -303 15 -436 75 -690
261 -1105 1127 -1970 2229 -2229 544 -128 1097 -104 1629 70 988 325 1742
1147 1980 2159 47 198 81 462 81 623 l0 67 -248 0 -249 0 -7 -122 c-32 -565
-238 -1083 -598 -1503 -407 -475 -950 -767 -1593 -857 -116 -16 -494 -16 -610
0 -508 71 -950 267 -1320 584 -475 407 -767 950 -857 1593 -16 116 -16 494 0
610 58 412 185 751 407 1085 360 542 943 934 1575 1059 219 43 241 44 878 48
l622 4 0 -628 0 -628 752 753 753 752 -753 752 -752 753 0 -627z"/>
<path d="M4714 4431 c-218 -59 -370 -209 -448 -443 -51 -150 -69 -291 -69
-528 0 -237 18 -378 69 -528 101 -304 320 -462 640 -462 142 0 197 11 304 62
197 94 330 304 391 620 27 141 27 495 0 636 -25 126 -60 230 -116 341 -69 138
-171 229 -323 288 -60 24 -83 27 -222 30 -128 2 -167 0 -226 -16z m306 -302
c62 -19 131 -78 162 -139 57 -114 63 -165 63 -510 0 -356 -4 -387 -76 -538
-46 -95 -88 -132 -178 -158 -114 -34 -248 9 -308 100 -36 53 -67 144 -83 239
-13 82 -13 594 1 676 23 147 69 240 143 290 82 57 175 70 276 40z"/>
<path d="M2850 4274 c-151 -85 -279 -159 -283 -163 -5 -5 20 -66 58 -140 l67
-131 62 34 c109 61 399 216 403 216 1 0 3 -290 3 -645 l0 -645 -250 0 -250 0
0 -150 0 -150 645 0 646 0 -3 153 -3 152 -222 3 -223 2 0 810 0 810 -187 -1
-188 0 -275 -155z"/>
</g>
</svg>
