<?xml version="1.0" standalone="no"?>
<!DOCTYPE svg PUBLIC "-//W3C//DTD SVG 20010904//EN"
 "http://www.w3.org/TR/2001/REC-SVG-20010904/DTD/svg10.dtd">
<svg version="1.0" xmlns="http://www.w3.org/2000/svg"
 width="474.000000pt" height="474.000000pt" viewBox="0 0 474.000000 474.000000"
 preserveAspectRatio="xMidYMid meet">

<g transform="translate(0.000000,474.000000) scale(0.100000,-0.100000)"
fill="#000000" stroke="none">
<path d="M2200 3964 c-14 -2 -68 -12 -120 -20 -52 -9 -147 -33 -210 -54 -554
-181 -961 -648 -1077 -1235 -25 -129 -25 -432 1 -570 75 -407 310 -778 647
-1020 168 -121 426 -230 644 -272 140 -27 456 -24 592 5 655 142 1124 610
1264 1262 20 90 23 135 23 310 0 226 -14 323 -75 505 -182 546 -632 944 -1204
1065 -74 16 -146 22 -280 25 -99 2 -191 2 -205 -1z m10 -950 c113 -64 261
-148 330 -186 501 -283 597 -341 613 -368 21 -35 22 -82 2 -120 -15 -28 -39
-43 -655 -390 -85 -49 -231 -131 -325 -184 -140 -79 -177 -96 -212 -96 -52 0
-98 36 -113 88 -6 23 -10 263 -10 650 0 665 -1 656 55 700 56 44 89 34 315
-94z"/>
</g>
</svg>
