<?xml version="1.0" standalone="no"?>
<!DOCTYPE svg PUBLIC "-//W3C//DTD SVG 20010904//EN"
 "http://www.w3.org/TR/2001/REC-SVG-20010904/DTD/svg10.dtd">
<svg version="1.0" xmlns="http://www.w3.org/2000/svg"
 width="195.000000pt" height="194.000000pt" viewBox="0 0 195.000000 194.000000"
 preserveAspectRatio="xMidYMid meet">

<g transform="translate(0.000000,194.000000) scale(0.100000,-0.100000)"
fill="#000000" stroke="none">
<path d="M808 1904 c-339 -61 -627 -318 -732 -653 -196 -623 293 -1258 944
-1227 63 3 143 12 178 21 339 82 599 329 698 662 32 108 43 302 24 419 -83
519 -589 873 -1112 778z m390 -103 c156 -41 296 -125 409 -244 165 -174 241
-380 231 -630 -4 -103 -10 -137 -38 -219 -114 -341 -412 -572 -769 -594 -364
-23 -713 199 -846 540 -62 157 -77 345 -41 499 78 341 344 597 683 662 101 19
272 13 371 -14z"/>
<path d="M660 970 l0 -390 115 0 115 0 0 390 0 390 -115 0 -115 0 0 -390z"/>
<path d="M1080 970 l0 -390 115 0 115 0 0 390 0 390 -115 0 -115 0 0 -390z"/>
</g>
</svg>
